<?xml version="1.0" encoding="utf-8"?>
<svg viewBox="0 0 256 180" width="256" height="180" xmlns="http://www.w3.org/2000/svg" preserveAspectRatio="xMidYMid">
  <path d="M 250.346 28.076 C 258.801 62.11 256.848 115.862 250.51 151.21 C 247.522 162.253 238.896 170.879 227.853 173.867 C 207.988 179.285 128.033 179.285 128.033 179.285 C 128.033 179.285 48.077 179.285 28.211 173.867 C 17.169 170.878 8.543 162.252 5.555 151.21 C -2.95 117.324 -0.619 63.538 5.39 28.24 C 8.378 17.197 17.003 8.571 28.046 5.582 C 47.912 0.164 127.87 0 127.87 0 C 127.87 0 207.824 0 227.69 5.418 C 238.732 8.407 247.358 17.033 250.346 28.075 Z M 102.421 128.06 L 168.749 89.642 L 102.421 51.224 Z" fill="red"/>
</svg>